<svg width="257.5125122070312px" height="100.60000610351562px" xmlns="http://www.w3.org/2000/svg"
     viewBox="-43.756256103515625 14.199996948242188 587.5125122070312 121.60000610351562"
     preserveAspectRatio="xMidYMid">
    <g>
        <path fill="orange" d="M20.161,2.273C16.233,3.835,12.553,6.2,9.375,9.378C9.19,9.562,9.018,9.755,8.838,9.942
		c1.386,3.831,3.126,7.562,5.242,11.133C18.139,15.485,20.168,8.879,20.161,2.273z"/>
        <path fill="orange" d="M63.824,28.682c-9.751-1.521-20.067,1.469-27.58,8.981c-1.202,1.202-2.287,2.479-3.258,3.812
		c7.363,5.18,15.545,8.678,24.021,10.495C62.398,45.233,64.671,36.827,63.824,28.682z"/>
        <path fill="orange" d="M27.05,63.616c9.75,1.519,20.067-1.471,27.58-8.983c0.308-0.308,0.602-0.624,0.894-0.94
		c-8.344-1.927-16.387-5.451-23.659-10.562C27.924,49.32,26.316,56.563,27.05,63.616z"/>
        <path fill="orange" d="M12.771,22.754c-2.172-3.571-3.98-7.297-5.435-11.13c-4.895,5.909-7.34,13.163-7.332,20.416
		c3.926-1.562,7.607-3.928,10.785-7.105C11.491,24.232,12.147,23.503,12.771,22.754z"/>
        <path fill="orange" d="M13.881,24.53c-0.535,0.62-1.09,1.231-1.678,1.819c-3.554,3.553-7.701,6.146-12.121,7.798
		c0.497,7.462,3.59,14.782,9.293,20.485c0.027,0.028,0.057,0.054,0.085,0.082c2.091-7.833,5.595-15.364,10.528-22.188
		C17.73,29.981,15.691,27.309,13.881,24.53z"/>
        <path fill="orange" d="M30.236,41.961c-2.588-1.935-5.074-4.067-7.427-6.42c-0.493-0.493-0.958-1.003-1.433-1.507
		c-4.874,6.828-8.298,14.369-10.258,22.207c4.102,3.541,8.884,5.869,13.886,6.984C24.372,55.889,26.117,48.385,30.236,41.961z"/>
        <path fill="orange" d="M22.583,32.401c0.54,0.579,1.076,1.161,1.641,1.726c2.262,2.262,4.653,4.313,7.14,6.18
		c1.033-1.42,2.187-2.778,3.467-4.058c7.829-7.829,18.525-11.037,28.708-9.635c-1.062-6.245-3.979-12.235-8.761-17.08
		c-9.619,3.111-18.671,8.468-26.311,16.107C26.321,27.787,24.371,30.052,22.583,32.401z"/>
        <path fill="orange" d="M15.215,22.892c1.773,2.78,3.774,5.456,6.007,8.002c1.78-2.312,3.711-4.546,5.831-6.666
		c7.594-7.595,16.541-13.007,26.063-16.257c-8.688-7.646-20.523-9.78-30.973-6.405C22.307,9.073,19.998,16.62,15.215,22.892z"/>
    </g>
    <defs>
        <filter id="editing-extrusion" x="-100%" y="-100%" width="300%" height="300%">
            <feFlood result="color1" flood-color="#fca52d"></feFlood>
            <feConvolveMatrix order="8,8" divisor="1"
                              kernelMatrix="1 0 0 0 0 0 0 0 0 1 0 0 0 0 0 0 0 0 1 0 0 0 0 0 0 0 0 1 0 0 0 0 0 0 0 0 1 0 0 0 0 0 0 0 0 1 0 0 0 0 0 0 0 0 1 0 0 0 0 0 0 0 0 1"
                              in="SourceAlpha" result="extrude"></feConvolveMatrix>
            <feComposite in="color1" in2="extrude" result="comp-extrude" operator="in"></feComposite>
            <feOffset dx="4" dy="4" in="comp-extrude" result="offset-extrude"></feOffset>
            <feMerge>
                <feMergeNode in="offset-extrude"></feMergeNode>
                <feMergeNode in="SourceGraphic"></feMergeNode>
            </feMerge>
        </filter>
    </defs>
    <g filter="url(#editing-extrusion)">
        <g transform="translate(41.86998963356018, 98.67999839782715)">
            <path d="M0.26-3.07L0.26-3.07L8.19-44.80L21.18-46.08L19.20-36.29L19.20-36.29Q18.50-33.28 17.60-31.17L17.60-31.17L17.60-31.17Q19.01-32.96 22.08-33.66L22.08-33.66L22.08-33.66Q22.98-33.92 24.06-33.92L24.06-33.92L24.06-33.92Q30.02-33.92 33.28-30.30L33.28-30.30L33.28-30.30Q36.54-26.69 36.54-19.71L36.54-19.71L36.54-19.71Q36.54-10.62 31.36-4.93L31.36-4.93L31.36-4.93Q25.79 1.28 15.68 1.28L15.68 1.28L15.68 1.28Q8.70 1.28 3.46-1.02L3.46-1.02L3.46-1.02Q1.60-1.86 0.26-3.07ZM16.51-22.40L13.12-3.65L13.12-3.65Q14.46-2.50 16.13-2.50L16.13-2.50L16.13-2.50Q17.79-2.50 18.75-3.14L18.75-3.14L18.75-3.14Q19.71-3.78 20.42-5.06L20.42-5.06L20.42-5.06Q22.34-8.51 23.87-19.07L23.87-19.07L23.87-19.07Q24.32-22.08 24.32-25.09L24.32-25.09L24.32-25.09Q24.32-28.10 23.65-29.06L23.65-29.06L23.65-29.06Q22.98-30.02 21.70-30.02L21.70-30.02L21.70-30.02Q17.79-30.02 16.51-22.40L16.51-22.40ZM55.68-3.52L55.68-3.52L55.68-3.52Q53.70 1.28 47.36 1.28L47.36 1.28L47.36 1.28Q44.16 1.28 42.11-0.96L42.11-0.96L42.11-0.96Q40.45-2.82 40.45-4.93L40.45-4.93L40.45-4.93Q40.45-9.73 42.69-20.22L42.69-20.22L47.36-44.80L60.35-46.08L54.14-13.70L54.14-13.70Q53.06-8.96 53.06-7.30L53.06-7.30L53.06-7.30Q53.06-3.65 55.68-3.52ZM63.90-1.92L63.90-1.92L63.90-1.92Q62.40-3.58 61.73-6.21L61.73-6.21L61.73-6.21Q61.06-8.83 61.06-13.12L61.06-13.12L61.06-13.12Q61.06-17.41 62.53-21.31L62.53-21.31L62.53-21.31Q64-25.22 66.69-28.03L66.69-28.03L66.69-28.03Q72.19-33.92 81.28-33.92L81.28-33.92L81.28-33.92Q84.54-33.92 86.91-32.83L86.91-32.83L97.86-33.92L93.12-8.96L93.12-8.96Q92.93-8.19 92.93-6.78L92.93-6.78L92.93-6.78Q92.93-5.38 93.79-4.48L93.79-4.48L93.79-4.48Q94.66-3.58 95.94-3.46L95.94-3.46L95.94-3.46Q95.30-1.28 92.96 0L92.96 0L92.96 0Q90.62 1.28 88 1.28L88 1.28L88 1.28Q85.38 1.28 83.62 0.29L83.62 0.29L83.62 0.29Q81.86-0.70 81.34-2.37L81.34-2.37L81.34-2.37Q80.32-0.77 78.14 0.26L78.14 0.26L78.14 0.26Q75.97 1.28 73.06 1.28L73.06 1.28L73.06 1.28Q70.14 1.28 67.78 0.51L67.78 0.51L67.78 0.51Q65.41-0.26 63.90-1.92ZM77.41-27.90L77.41-27.90L77.41-27.90Q76.67-26.75 76.03-24.80L76.03-24.80L76.03-24.80Q75.39-22.85 74.34-17.63L74.34-17.63L74.34-17.63Q73.28-12.42 73.28-8.70L73.28-8.70L73.28-8.70Q73.28-4.99 73.86-3.90L73.86-3.90L73.86-3.90Q74.43-2.82 75.46-2.82L75.46-2.82L75.46-2.82Q77.50-2.82 79.01-4.77L79.01-4.77L79.01-4.77Q80.51-6.72 81.09-10.18L81.09-10.18L84.48-28.93L84.48-28.93Q83.14-30.08 81.57-30.08L81.57-30.08L81.57-30.08Q80-30.08 79.07-29.57L79.07-29.57L79.07-29.57Q78.14-29.06 77.41-27.90ZM121.86-2.69L121.86-2.69L121.86-2.69Q118.78 1.28 111.17 1.28L111.17 1.28L111.17 1.28Q107.20 1.28 104.32-1.12L104.32-1.12L104.32-1.12Q101.44-3.52 101.44-6.98L101.44-6.98L101.44-6.98Q101.44-8.90 101.63-9.86L101.63-9.86L105.92-32.64L118.91-33.92L114.24-9.22L114.24-9.22Q113.98-7.81 113.98-6.98L113.98-6.98L113.98-6.98Q113.98-3.26 116.22-3.26L116.22-3.26L116.22-3.26Q118.72-3.26 120.51-6.66L120.51-6.66L120.51-6.66Q121.09-7.74 121.34-9.15L121.34-9.15L125.89-32.64L138.50-33.92L133.76-8.96L133.76-8.96Q133.57-8 133.57-6.98L133.57-6.98L133.57-6.98Q133.57-5.95 134.14-4.83L134.14-4.83L134.14-4.83Q134.72-3.71 136.58-3.46L136.58-3.46L136.58-3.46Q136.19-1.92 134.85-0.90L134.85-0.90L134.85-0.90Q132.03 1.28 128.99 1.28L128.99 1.28L128.99 1.28Q125.95 1.28 124.16 0.19L124.16 0.19L124.16 0.19Q122.37-0.90 121.86-2.69ZM189.70-10.69L189.70-10.69Q185.47-4.86 181.41-1.79L181.41-1.79L181.41-1.79Q177.34 1.28 173.15 1.28L173.15 1.28L173.15 1.28Q168.96 1.28 167.49 0.45L167.49 0.45L167.49-13.63L167.49-13.63Q163.84-3.90 157.31-0.13L157.31-0.13L157.31-0.13Q154.94 1.28 152.70 1.28L152.70 1.28L152.70 1.28Q148.42 1.28 146.56 0.45L146.56 0.45L146.56 0.45Q146.11-14.21 145.73-18.27L145.73-18.27L145.73-18.27Q145.34-22.34 145.02-24.83L145.02-24.83L145.02-24.83Q144.38-29.82 142.21-31.87L142.21-31.87L142.21-31.87Q144.96-33.92 148.80-33.92L148.80-33.92L148.80-33.92Q156.22-33.92 157.25-24.70L157.25-24.70L157.25-24.70Q157.50-22.53 157.50-20.22L157.50-20.22L157.50-20.22Q157.50-16.77 156.74-4.74L156.74-4.74L156.74-4.74Q158.27-5.44 159.90-7.97L159.90-7.97L159.90-7.97Q161.54-10.50 162.88-13.95L162.88-13.95L162.88-13.95Q165.89-21.95 165.89-28.86L165.89-28.86L165.89-28.86Q165.89-29.95 165.60-31.10L165.60-31.10L165.60-31.10Q165.31-32.26 164.99-32.58L164.99-32.58L164.99-32.58Q167.23-33.92 170.66-33.92L170.66-33.92L170.66-33.92Q174.08-33.92 175.71-31.58L175.71-31.58L175.71-31.58Q177.34-29.25 177.79-24.96L177.79-24.96L177.79-24.96Q178.30-19.52 178.30-16.26L178.30-16.26L178.30-16.26Q178.30-11.71 177.86-4.99L177.86-4.99L177.86-4.99Q181.06-7.30 183.68-14.85L183.68-14.85L183.68-14.85Q186.30-22.40 186.30-27.78L186.30-27.78L186.30-27.78Q186.30-30.14 185.92-31.55L185.92-31.55L185.92-31.55Q188.03-33.92 191.68-33.92L191.68-33.92L191.68-33.92Q193.92-33.92 195.55-32.70L195.55-32.70L195.55-32.70Q197.18-31.49 197.18-29.22L197.18-29.22L197.18-29.22Q197.18-26.94 196.51-24.51L196.51-24.51L196.51-24.51Q195.84-22.08 194.75-19.58L194.75-19.58L194.75-19.58Q192.64-14.59 189.70-10.69L189.70-10.69ZM198.08-3.07L198.08-3.07L206.02-44.80L219.01-46.08L217.02-36.29L217.02-36.29Q216.32-33.28 215.42-31.17L215.42-31.17L215.42-31.17Q216.83-32.96 219.90-33.66L219.90-33.66L219.90-33.66Q220.80-33.92 221.89-33.92L221.89-33.92L221.89-33.92Q227.84-33.92 231.10-30.30L231.10-30.30L231.10-30.30Q234.37-26.69 234.37-19.71L234.37-19.71L234.37-19.71Q234.37-10.62 229.18-4.93L229.18-4.93L229.18-4.93Q223.62 1.28 213.50 1.28L213.50 1.28L213.50 1.28Q206.53 1.28 201.28-1.02L201.28-1.02L201.28-1.02Q199.42-1.86 198.08-3.07ZM214.34-22.40L210.94-3.65L210.94-3.65Q212.29-2.50 213.95-2.50L213.95-2.50L213.95-2.50Q215.62-2.50 216.58-3.14L216.58-3.14L216.58-3.14Q217.54-3.78 218.24-5.06L218.24-5.06L218.24-5.06Q220.16-8.51 221.70-19.07L221.70-19.07L221.70-19.07Q222.14-22.08 222.14-25.09L222.14-25.09L222.14-25.09Q222.14-28.10 221.47-29.06L221.47-29.06L221.47-29.06Q220.80-30.02 219.52-30.02L219.52-30.02L219.52-30.02Q215.62-30.02 214.34-22.40L214.34-22.40ZM240.99-1.92L240.99-1.92L240.99-1.92Q239.49-3.58 238.82-6.21L238.82-6.21L238.82-6.21Q238.14-8.83 238.14-13.12L238.14-13.12L238.14-13.12Q238.14-17.41 239.62-21.31L239.62-21.31L239.62-21.31Q241.09-25.22 243.78-28.03L243.78-28.03L243.78-28.03Q249.28-33.92 258.37-33.92L258.37-33.92L258.37-33.92Q261.63-33.92 264-32.83L264-32.83L274.94-33.92L270.21-8.96L270.21-8.96Q270.02-8.19 270.02-6.78L270.02-6.78L270.02-6.78Q270.02-5.38 270.88-4.48L270.88-4.48L270.88-4.48Q271.74-3.58 273.02-3.46L273.02-3.46L273.02-3.46Q272.38-1.28 270.05 0L270.05 0L270.05 0Q267.71 1.28 265.09 1.28L265.09 1.28L265.09 1.28Q262.46 1.28 260.70 0.29L260.70 0.29L260.70 0.29Q258.94-0.70 258.43-2.37L258.43-2.37L258.43-2.37Q257.41-0.77 255.23 0.26L255.23 0.26L255.23 0.26Q253.06 1.28 250.14 1.28L250.14 1.28L250.14 1.28Q247.23 1.28 244.86 0.51L244.86 0.51L244.86 0.51Q242.50-0.26 240.99-1.92ZM254.50-27.90L254.50-27.90L254.50-27.90Q253.76-26.75 253.12-24.80L253.12-24.80L253.12-24.80Q252.48-22.85 251.42-17.63L251.42-17.63L251.42-17.63Q250.37-12.42 250.37-8.70L250.37-8.70L250.37-8.70Q250.37-4.99 250.94-3.90L250.94-3.90L250.94-3.90Q251.52-2.82 252.54-2.82L252.54-2.82L252.54-2.82Q254.59-2.82 256.10-4.77L256.10-4.77L256.10-4.77Q257.60-6.72 258.18-10.18L258.18-10.18L261.57-28.93L261.57-28.93Q260.22-30.08 258.66-30.08L258.66-30.08L258.66-30.08Q257.09-30.08 256.16-29.57L256.16-29.57L256.16-29.57Q255.23-29.06 254.50-27.90ZM293.70-3.52L293.70-3.52L293.70-3.52Q291.71 1.28 285.38 1.28L285.38 1.28L285.38 1.28Q282.18 1.28 280.13-0.96L280.13-0.96L280.13-0.96Q278.46-2.82 278.46-4.93L278.46-4.93L278.46-4.93Q278.46-9.73 280.70-20.22L280.70-20.22L285.38-44.80L298.37-46.08L292.16-13.70L292.16-13.70Q291.07-8.96 291.07-7.30L291.07-7.30L291.07-7.30Q291.07-3.65 293.70-3.52ZM314.43-3.52L314.43-3.52L314.43-3.52Q312.45 1.28 306.11 1.28L306.11 1.28L306.11 1.28Q302.91 1.28 300.86-0.96L300.86-0.96L300.86-0.96Q299.20-2.82 299.20-4.93L299.20-4.93L299.20-4.93Q299.20-9.73 301.44-20.22L301.44-20.22L306.11-44.80L319.10-46.08L312.90-13.70L312.90-13.70Q311.81-8.96 311.81-7.30L311.81-7.30L311.81-7.30Q311.81-3.65 314.43-3.52ZM345.79-10.82L345.79-10.82L345.79-10.82Q347.39-9.73 347.39-7.33L347.39-7.33L347.39-7.33Q347.39-4.93 346.18-3.39L346.18-3.39L346.18-3.39Q344.96-1.86 342.98-0.83L342.98-0.83L342.98-0.83Q338.88 1.28 334.46 1.28L334.46 1.28L334.46 1.28Q330.05 1.28 327.46 0.32L327.46 0.32L327.46 0.32Q324.86-0.64 323.14-2.43L323.14-2.43L323.14-2.43Q319.74-5.82 319.74-12.03L319.74-12.03L319.74-12.03Q319.74-21.70 324.99-27.58L324.99-27.58L324.99-27.58Q330.62-33.92 340.42-33.92L340.42-33.92L340.42-33.92Q346.50-33.92 349.50-31.36L349.50-31.36L349.50-31.36Q351.74-29.44 351.74-26.30L351.74-26.30L351.74-26.30Q351.74-15.04 332.29-15.04L332.29-15.04L332.29-15.04Q332.03-13.38 332.03-11.97L332.03-11.97L332.03-11.97Q332.03-9.02 333.34-7.90L333.34-7.90L333.34-7.90Q334.66-6.78 337.09-6.78L337.09-6.78L337.09-6.78Q339.52-6.78 342.11-7.90L342.11-7.90L342.11-7.90Q344.70-9.02 345.79-10.82ZM332.74-17.79L332.74-17.79L332.74-17.79Q337.28-17.79 339.90-20.61L339.90-20.61L339.90-20.61Q342.53-23.30 342.53-27.58L342.53-27.58L342.53-27.58Q342.53-29.06 341.98-29.86L341.98-29.86L341.98-29.86Q341.44-30.66 340.35-30.66L340.35-30.66L340.35-30.66Q339.26-30.66 338.34-30.24L338.34-30.24L338.34-30.24Q337.41-29.82 336.45-28.42L336.45-28.42L336.45-28.42Q334.08-25.22 332.74-17.79ZM373.95-17.98L373.95-17.98L373.95-17.98Q376.26-22.08 376.26-26.24L376.26-26.24L376.26-26.24Q376.26-28.99 374.27-28.99L374.27-28.99L374.27-28.99Q372.74-28.99 371.14-26.37L371.14-26.37L371.14-26.37Q369.47-23.74 368.96-20.35L368.96-20.35L365.63 0L352.38 1.28L358.91-32.64L369.47-33.92L368.32-27.46L368.32-27.46Q371.46-33.92 378.50-33.92L378.50-33.92L378.50-33.92Q382.21-33.92 384.22-32L384.22-32L384.22-32Q386.24-30.08 386.24-26.14L386.24-26.14L386.24-26.14Q386.24-22.21 383.65-19.71L383.65-19.71L383.65-19.71Q381.06-17.22 376.64-17.22L376.64-17.22L376.64-17.22Q374.72-17.22 373.95-17.98ZM406.40-22.46L406.40-22.46L406.40-22.46Q407.30-24.83 407.30-26.88L407.30-26.88L407.30-26.88Q407.30-30.66 404.22-30.66L404.22-30.66L404.22-30.66Q402.62-30.66 401.31-29.22L401.31-29.22L401.31-29.22Q400.00-27.78 400.00-25.98L400.00-25.98L400.00-25.98Q400.00-24.70 401.02-23.68L401.02-23.68L401.02-23.68Q402.50-22.27 406.27-19.97L406.27-19.97L406.27-19.97Q410.05-17.66 411.49-15.78L411.49-15.78L411.49-15.78Q412.93-13.89 412.93-11.30L412.93-11.30L412.93-11.30Q412.93-8.70 411.68-6.34L411.68-6.34L411.68-6.34Q410.43-3.97 408.19-2.30L408.19-2.30L408.19-2.30Q403.39 1.28 395.71 1.28L395.71 1.28L395.71 1.28Q391.55 1.28 388.35-0.90L388.35-0.90L388.35-0.90Q385.15-3.01 385.15-5.50L385.15-5.50L385.15-5.50Q385.15-8 386.98-9.47L386.98-9.47L386.98-9.47Q388.80-10.94 391.49-10.94L391.49-10.94L391.49-10.94Q394.18-10.94 395.84-9.92L395.84-9.92L395.84-9.92Q395.01-7.81 395.01-6.40L395.01-6.40L395.01-6.40Q395.01-2.18 398.59-2.18L398.59-2.18L398.59-2.18Q400.13-2.18 401.15-3.14L401.15-3.14L401.15-3.14Q402.18-4.10 402.18-5.76L402.18-5.76L402.18-5.76Q402.18-9.02 396.67-12.48L396.67-12.48L396.67-12.48Q392.19-15.42 391.17-16.58L391.17-16.58L391.17-16.58Q389.44-18.62 389.44-21.18L389.44-21.18L389.44-21.18Q389.44-23.74 390.66-26.18L390.66-26.18L390.66-26.18Q391.87-28.61 394.11-30.34L394.11-30.34L394.11-30.34Q398.78-33.92 406.91-33.92L406.91-33.92L406.91-33.92Q411.07-33.92 413.54-32.26L413.54-32.26L413.54-32.26Q416.00-30.59 416.00-27.78L416.00-27.78L416.00-27.78Q416.00-24.96 414.30-23.36L414.30-23.36L414.30-23.36Q412.61-21.76 409.54-21.76L409.54-21.76L409.54-21.76Q407.42-21.76 406.40-22.46Z"
                  fill="#000000"></path>
        </g>
    </g>
    <style>text {
        font-size: 64px;
        font-family: Arial Black;
        dominant-baseline: central;
        text-anchor: middle;
        }
    </style>
</svg>